<svg width="467" height="81" viewBox="0 0 467 81" fill="none" xmlns="http://www.w3.org/2000/svg">
<path d="M25.9571 59.7603C40.3777 59.7603 49.1819 52.2237 49.1819 40.5C49.1819 32.2782 44.1726 26.7209 33.8505 24.437L23.756 22.1532C19.8853 21.2397 17.836 20.0216 17.836 17.7378C17.836 15.4539 19.7335 14.0075 24.0597 14.0075C29.2966 14.0075 34.7613 16.5197 38.4803 19.9455L46.9808 7.38438C42.8823 3.73025 34.4577 0.532881 23.9838 0.532881C10.4739 0.532881 1.36615 7.23214 1.36615 18.6513C1.36615 26.9492 5.99594 33.0395 15.9386 35.3233L26.033 37.6833C31.0422 38.8252 32.6361 40.2716 32.6361 42.2509C32.6361 44.7632 30.5869 46.1335 25.9571 46.1335C20.4925 46.1335 13.8893 43.8496 8.57646 39.282L0 51.7669C3.94669 55.4211 13.0545 59.7603 25.9571 59.7603ZM66.0312 19.7932C71.5718 19.7932 75.8979 15.4539 75.8979 9.89662C75.8979 4.33929 71.5718 0 66.0312 0C60.4907 0 56.1645 4.33929 56.1645 9.89662C56.0886 15.4539 60.4148 19.7932 66.0312 19.7932ZM55.3296 58.6184H76.7328L72.1789 23.1429C68.7635 24.1325 63.2989 24.1325 59.8835 23.1429L55.3296 58.6184ZM86.7513 58.6184H103.828V27.9389C103.828 20.4022 107.471 15.7584 114.53 15.7584C121.209 15.7584 124.776 19.641 124.776 27.9389V58.6184H141.853V23.5996C141.853 8.29793 134.263 0.456772 121.133 0.456772C113.619 0.456772 107.927 3.42576 103.828 9.21147V5.55732C103.828 3.0451 102.386 1.59869 99.8817 1.59869H86.8272V58.6184H86.7513ZM193.995 5.48119V8.90694C190.124 3.12123 183.977 0.380639 176.69 0.380639C162.953 0.380639 150.961 12.4849 150.961 28.7002C150.961 44.9154 162.877 57.0197 176.69 57.0197C183.977 57.0197 189.897 54.7359 193.995 49.6353V53.2895C193.995 61.0545 188.91 66.6118 180.106 66.6118C172.288 66.6118 166.216 63.3383 162.497 59.6842L153.617 72.9304C159.31 78.031 168.721 81 180.106 81C197.183 81 211.072 72.4737 211.072 51.0056V1.59869H198.018C195.437 1.52256 193.995 2.96897 193.995 5.48119ZM181.244 41.9464C174.11 41.9464 168.266 36.1607 168.266 28.7002C168.266 21.3158 174.034 15.4539 181.244 15.4539C188.986 15.4539 194.526 21.2396 194.526 28.7002C194.526 36.0846 188.986 41.9464 181.244 41.9464ZM258.964 59.7603C273.764 59.7603 285.68 47.656 285.68 30.0705C285.68 12.485 273.764 0.380639 258.964 0.380639C251.222 0.380639 244.847 3.12123 240.672 8.90694V5.48119C240.672 2.96897 239.23 1.52256 236.726 1.52256H223.671V79.6297H240.748V52.3759C245.074 57.4765 251.222 59.7603 258.964 59.7603ZM254.41 44.687C246.365 44.687 240.065 38.6729 240.065 30.0705C240.065 21.5442 246.289 15.4539 254.41 15.4539C262.379 15.4539 268.375 21.468 268.375 30.0705C268.451 38.5968 262.379 44.687 254.41 44.687ZM319.758 59.7603C327.5 59.7603 333.875 57.0197 338.049 51.234V58.6184H355.202V1.52256H342.148C339.643 1.52256 338.201 2.96897 338.201 5.48119V8.90694C334.027 3.12123 327.651 0.380639 319.91 0.380639C305.11 0.380639 293.194 12.485 293.194 30.0705C293.194 47.656 304.958 59.7603 319.758 59.7603ZM324.312 44.687C316.343 44.687 310.347 38.6729 310.347 30.0705C310.347 21.5442 316.343 15.4539 324.312 15.4539C332.357 15.4539 338.657 21.468 338.657 30.0705C338.657 38.5968 332.433 44.687 324.312 44.687ZM389.812 59.7603C404.232 59.7603 413.037 52.2237 413.037 40.5C413.037 32.2782 408.027 26.7209 397.705 24.437L387.611 22.1532C383.74 21.2397 381.691 20.0216 381.691 17.7378C381.691 15.4539 383.588 14.0075 387.914 14.0075C393.151 14.0075 398.616 16.5197 402.335 19.9455L410.836 7.38438C406.737 3.73025 398.312 0.532881 387.838 0.532881C374.329 0.532881 365.221 7.23214 365.221 18.6513C365.221 26.9492 369.851 33.0395 379.793 35.3233L389.888 37.6833C394.897 38.8252 396.491 40.2716 396.491 42.2509C396.491 44.7632 394.442 46.1335 389.812 46.1335C384.347 46.1335 377.744 43.8496 372.431 39.282L363.931 51.8431C367.801 55.4211 376.909 59.7603 389.812 59.7603ZM443.775 59.7603C458.196 59.7603 467 52.2237 467 40.5C467 32.2782 461.991 26.7209 451.669 24.437L441.574 22.1532C437.703 21.2397 435.654 20.0216 435.654 17.7378C435.654 15.4539 437.552 14.0075 441.878 14.0075C447.115 14.0075 452.579 16.5197 456.298 19.9455L464.799 7.38438C460.701 3.73025 452.276 0.532881 441.802 0.532881C428.292 0.532881 419.184 7.23214 419.184 18.6513C419.184 26.9492 423.814 33.0395 433.757 35.3233L443.851 37.6833C448.86 38.8252 450.454 40.2716 450.454 42.2509C450.454 44.7632 448.405 46.1335 443.775 46.1335C438.311 46.1335 431.707 43.8496 426.395 39.282L417.894 51.8431C421.765 55.4211 430.873 59.7603 443.775 59.7603Z" fill="black"/>
</svg>
