<svg width="468" height="81" viewBox="0 0 468 81" fill="none" xmlns="http://www.w3.org/2000/svg">
<path d="M26.0144 59.7857C13.12 59.7857 3.99544 55.4493 0 51.8007L8.55772 39.2537C13.918 43.8158 20.5385 46.0995 26.0144 46.0995C30.6922 46.0995 32.745 44.7293 32.745 42.2199C32.745 40.2828 31.149 38.7969 26.1299 37.6578L15.9762 35.264C6.04819 32.9747 1.37034 26.9268 1.37034 18.6006C1.37034 7.19269 10.4949 0.462402 24.0717 0.462402C34.5666 0.462402 43.0087 3.6542 47.1197 7.30825L38.562 19.8553C34.7977 16.4324 29.3219 13.923 24.0717 13.923C19.735 13.923 17.7979 15.4088 17.7979 17.6871C17.7979 19.9654 19.8506 21.2256 23.7305 22.1336L33.8842 24.4174C44.2635 26.7011 49.2881 32.2868 49.2881 40.5029C49.2881 52.252 40.4992 59.7857 26.0144 59.7857ZM86.9365 58.6411H104.052V27.9559C104.052 20.4276 107.701 15.75 114.778 15.75C121.509 15.75 125.047 19.6297 125.047 27.9559V58.6466H142.163V23.6194C142.163 8.33182 134.519 0.462402 121.399 0.462402C113.87 0.462402 108.163 3.42857 104.057 9.24534V5.59679C104.057 3.08738 102.577 1.60154 100.062 1.60154H86.942V58.6411H86.9365ZM211.527 1.60154V50.9973C211.527 72.4428 197.609 81.0001 180.494 81.0001C169.085 81.0001 159.614 78.034 153.912 72.8996L162.811 59.6647C166.576 63.3132 172.624 66.6261 180.494 66.6261C189.277 66.6261 194.412 61.0349 194.412 53.2811V49.6325C190.306 54.7669 184.373 57.0452 177.071 57.0452C163.268 57.0452 151.287 44.9549 151.287 28.7538C151.287 12.5527 163.268 0.462402 177.071 0.462402C184.373 0.462402 190.532 3.20294 194.412 9.01971V5.59679C194.412 3.08738 195.897 1.60154 198.407 1.60154H211.527ZM194.984 28.7538C194.984 21.3411 189.393 15.5189 181.638 15.5189C174.451 15.5189 168.634 21.3356 168.634 28.7538C168.634 36.1665 174.451 41.9887 181.638 41.9887C189.393 41.9887 194.984 36.1665 194.984 28.7538ZM286.367 30.1241C286.367 47.6954 274.386 59.7857 259.555 59.7857C251.795 59.7857 245.637 57.5019 241.185 52.3731V79.6409H224.069V1.60154H237.195C239.704 1.60154 241.19 3.08738 241.19 5.59679V9.01971C245.411 3.20294 251.801 0.462402 259.56 0.462402C274.392 0.462402 286.367 12.5527 286.367 30.1241ZM269.026 30.1241C269.026 21.5668 262.978 15.5189 254.993 15.5189C246.892 15.5189 240.618 21.5668 240.618 30.1241C240.618 38.6814 246.892 44.7293 254.993 44.7293C262.983 44.7238 269.026 38.6759 269.026 30.1241ZM355.963 1.60154V58.6411H338.847V51.2284C334.626 57.0452 328.237 59.7857 320.477 59.7857C305.645 59.7857 293.665 47.6954 293.665 30.1241C293.665 12.5527 305.645 0.462402 320.477 0.462402C328.237 0.462402 334.626 3.20294 338.847 9.01971V5.59679C338.847 3.08738 340.333 1.60154 342.843 1.60154H355.963ZM339.42 30.1241C339.42 21.5668 333.146 15.5189 325.045 15.5189C317.059 15.5189 311.011 21.5668 311.011 30.1241C311.011 38.6814 317.059 44.7293 325.045 44.7293C333.146 44.7238 339.42 38.6759 339.42 30.1241ZM390.65 59.7857C405.141 59.7857 413.924 52.2575 413.924 40.5084C413.924 32.2923 408.905 26.7066 398.52 24.4229L388.366 22.1391C384.487 21.2256 382.434 19.9709 382.434 17.6926C382.434 15.4143 384.371 13.9285 388.708 13.9285C393.958 13.9285 399.434 16.4379 403.198 19.8608L411.756 7.31375C407.65 3.6652 399.208 0.467905 388.708 0.467905C375.131 0.467905 366.006 7.19819 366.006 18.6061C366.006 26.9323 370.684 32.9802 380.612 35.264L390.766 37.6578C395.785 38.7969 397.381 40.2828 397.381 42.2199C397.381 44.7293 395.328 46.0995 390.65 46.0995C385.174 46.0995 378.559 43.8158 373.194 39.2537L364.636 51.8007C368.631 55.4493 377.756 59.7857 390.65 59.7857ZM444.726 59.7857C459.217 59.7857 468 52.2575 468 40.5084C468 32.2923 462.981 26.7066 452.596 24.4229L442.442 22.1391C438.563 21.2256 436.51 19.9709 436.51 17.6926C436.51 15.4143 438.447 13.9285 442.784 13.9285C448.034 13.9285 453.51 16.4379 457.274 19.8608L465.832 7.31375C461.726 3.6652 453.284 0.467905 442.784 0.467905C429.207 0.467905 420.082 7.19819 420.082 18.6061C420.082 26.9323 424.76 32.9802 434.688 35.264L444.842 37.6578C449.861 38.7969 451.457 40.2828 451.457 42.2199C451.457 44.7293 449.404 46.0995 444.726 46.0995C439.25 46.0995 432.635 43.8158 427.27 39.2537L418.712 51.8007C422.707 55.4493 431.837 59.7857 444.726 59.7857Z" fill="#F4333D"/>
<path d="M66.1723 19.8552C71.7637 19.8552 76.1004 15.5187 76.1004 9.92758C76.1004 4.33644 71.7637 0 66.1723 0C60.5809 0 56.2443 4.33644 56.2443 9.92758C56.2498 15.5187 60.5809 19.8552 66.1723 19.8552ZM55.4463 58.641H76.8929L72.3306 23.1625C68.9075 24.1916 63.4317 24.1916 60.0086 23.1625L55.4463 58.641Z" fill="#F4333D"/>
</svg>
